<?xml version="1.0" encoding="utf-8"?>
<!-- Generator: Adobe Illustrator 18.0.0, SVG Export Plug-In . SVG Version: 6.00 Build 0)  -->
<!DOCTYPE svg PUBLIC "-//W3C//DTD SVG 1.1//EN" "http://www.w3.org/Graphics/SVG/1.1/DTD/svg11.dtd">
<svg version="1.1" id="Capa_1" xmlns="http://www.w3.org/2000/svg" xmlns:xlink="http://www.w3.org/1999/xlink" x="0px" y="0px"
	 viewBox="0 0 24.1 24.1" enable-background="new 0 0 24.1 24.1" xml:space="preserve">
<g>
	<path fill="#FFFFFF" d="M-35.3,47c-5.6,0-10.2,4.6-10.2,10.2c0,5.6,4.6,10.2,10.2,10.2c5.6,0,10.2-4.6,10.2-10.2
		C-25.1,51.6-29.7,47-35.3,47z M-32.6,57.7h-1.7v5.9h-2.5v-5.9h-1.4v-2h1.4v-1.3c0-1.6,0.7-2.6,2.8-2.6h1.7v1.9h-1
		c-0.8,0-0.9,0.3-0.9,0.8v1.2h2L-32.6,57.7z"/>
</g>
<path id="XMLID_11_" fill="#FFFFFF" d="M20.5,47c-5.6,0-10.2,4.6-10.2,10.2c0,5.6,4.6,10.2,10.2,10.2c5.6,0,10.2-4.6,10.2-10.2
	C30.7,51.6,26.1,47,20.5,47z M24.7,55.5c0,0.1,0,0.2,0,0.3c0,3.1-2.3,6.6-6.6,6.6c-1.3,0-2.5-0.4-3.6-1c0.2,0,0.4,0,0.6,0
	c1.1,0,2.1-0.4,2.9-1c-1,0-1.9-0.7-2.2-1.6c0.1,0,0.3,0,0.4,0c0.2,0,0.4,0,0.6-0.1c-1.1-0.2-1.9-1.1-1.9-2.3v0
	c0.3,0.2,0.7,0.3,1,0.3c-0.6-0.4-1-1.1-1-1.9c0-0.4,0.1-0.8,0.3-1.2c1.1,1.4,2.9,2.3,4.8,2.4c0-0.2-0.1-0.3-0.1-0.5
	c0-1.3,1-2.3,2.3-2.3c0.7,0,1.3,0.3,1.7,0.7c0.5-0.1,1-0.3,1.5-0.6c-0.2,0.5-0.5,1-1,1.3c0.5-0.1,0.9-0.2,1.3-0.4
	C25.6,54.8,25.2,55.2,24.7,55.5z"/>
<g id="XMLID_135_">
	<path id="XMLID_138_" fill="#FFFFFF" d="M-4.6,52.2c-1.8,0-3.7,0-5.5,0c-1.3,0-2.2,0.9-2.3,2.2c0,0.7-0.1,1.4-0.1,2
		c0,1.2,0,2.3,0.1,3.5c0,0.4,0.1,0.8,0.3,1.2c0.4,0.7,1.1,1,1.9,1.1c0.7,0,1.4,0.1,2,0.1c1.1,0,2.2,0,3.4,0c0.6,0,1.1-0.1,1.6-0.5
		c0.6-0.5,0.8-1.1,0.8-1.8c0-0.9,0.1-1.8,0.1-2.7c0-0.9,0-1.8-0.1-2.7C-2.4,53.2-3.3,52.3-4.6,52.2z M-7.4,60.4
		c-1.7,0-3.2-1.4-3.2-3.2c0-1.8,1.4-3.2,3.2-3.2c1.7,0,3.2,1.4,3.2,3.2C-4.2,59-5.6,60.4-7.4,60.4z M-4.1,54.7
		c-0.4,0-0.7-0.4-0.7-0.8c0-0.4,0.3-0.7,0.8-0.7c0.4,0,0.7,0.3,0.7,0.7C-3.4,54.3-3.7,54.7-4.1,54.7z"/>
	<path id="XMLID_140_" fill="#FFFFFF" d="M-7.4,55.2c-1.1,0-2,0.9-2,2c0,1.2,0.9,2.1,2,2.1c1.1,0,2-0.9,2.1-2
		C-5.3,56.1-6.3,55.2-7.4,55.2z"/>
	<path id="XMLID_143_" fill="#FFFFFF" d="M-7.4,47c-5.6,0-10.2,4.6-10.2,10.2c0,5.6,4.6,10.2,10.2,10.2c5.6,0,10.2-4.6,10.2-10.2
		C2.8,51.6-1.8,47-7.4,47z M-1.3,60.1c0,1.2-0.6,2.1-1.7,2.7c-0.6,0.3-1.2,0.5-1.9,0.5c-1.8,0-3.7,0-5.5,0c-1.6-0.1-2.8-1.2-3-2.8
		c-0.1-1-0.1-1.9-0.1-2.9c0-0.1,0-0.3,0-0.4c0,0,0,0,0,0c0-1,0-1.9,0.1-2.9c0.1-1.7,1.2-2.9,2.8-3.1c0.7-0.1,1.3-0.1,2-0.1
		c1.4,0,2.7,0,4.1,0.1c1.2,0.1,2.2,0.6,2.8,1.6c0.3,0.5,0.5,1,0.5,1.5C-1.3,56.2-1.2,58.2-1.3,60.1z"/>
</g>
<path id="XMLID_13_" fill="#FFFFFF" d="M48.4,47c-5.6,0-10.2,4.6-10.2,10.2c0,5.6,4.6,10.2,10.2,10.2c5.6,0,10.2-4.6,10.2-10.2
	C58.6,51.6,54,47,48.4,47z M52.5,58.1l-5.8,3.3c-0.4,0.2-0.8,0-0.8-0.5v-6.6c0-0.5,0.4-0.7,0.8-0.5l5.8,3.3
	C52.9,57.5,52.9,57.9,52.5,58.1z"/>
<g id="XMLID_2351_">
	<g id="XMLID_2353_">
		<g id="XMLID_2354_">
			<g id="XMLID_2355_">
				<path id="XMLID_2357_" fill="none" stroke="#FFFFFF" stroke-miterlimit="10" d="M12.1,0.5C5.7,0.5,0.5,5.7,0.5,12.1
					c0,6.4,5.2,11.6,11.6,11.6c6.4,0,11.6-5.2,11.6-11.6C23.6,5.7,18.4,0.5,12.1,0.5L12.1,0.5z"/>
			</g>
		</g>
	</g>
	<path id="XMLID_2352_" fill="#FFFFFF" d="M13.2,10.3V9c0-0.6,0.1-0.9,1.1-0.9h1.1V6h-1.9c-2.4,0-3.1,1.1-3.1,2.9v1.5H8.7v2.2h1.6
		v6.6h2.8v-6.6h2l0.3-2.2H13.2z"/>
</g>
<g id="XMLID_2322_">
	<g id="XMLID_2341_">
		<g id="XMLID_2344_">
			<g id="XMLID_2347_">
				<g id="XMLID_2348_">
					<path id="XMLID_2349_" fill="none" stroke="#FFFFFF" stroke-miterlimit="10" d="M47.3,0.5c-6.4,0-11.6,5.2-11.6,11.6
						c0,6.4,5.2,11.6,11.6,11.6c6.4,0,11.6-5.2,11.6-11.6C58.9,5.7,53.7,0.5,47.3,0.5L47.3,0.5z"/>
				</g>
			</g>
		</g>
	</g>
	<g id="XMLID_6_">
		<path id="XMLID_52_" fill="#FFFFFF" d="M41.4,12.1c0-1,0-1.9,0.1-2.9c0.1-1.7,1.2-2.9,2.8-3.1c0.7-0.1,1.3-0.1,2-0.1
			c1.4,0,2.7,0,4.1,0.1c1.2,0.1,2.2,0.6,2.8,1.6c0.3,0.5,0.5,1,0.5,1.5c0,2,0.1,3.9,0,5.9c0,1.2-0.6,2.1-1.7,2.7
			c-0.6,0.3-1.2,0.5-1.9,0.5c-1.8,0-3.7,0-5.5,0c-1.6-0.1-2.8-1.2-3-2.8c-0.1-1-0.1-1.9-0.1-2.9C41.4,12.3,41.5,12.2,41.4,12.1
			C41.4,12.1,41.4,12.1,41.4,12.1z M52.7,12.1c0-0.9,0-1.8-0.1-2.7c-0.1-1.3-0.9-2.2-2.3-2.3c-1.8,0-3.7,0-5.5,0
			c-1.3,0-2.2,0.9-2.3,2.2c0,0.7-0.1,1.4-0.1,2c0,1.2,0,2.3,0.1,3.5c0,0.4,0.1,0.8,0.3,1.2c0.4,0.7,1.1,1,1.9,1.1
			c0.7,0,1.4,0.1,2,0.1c1.1,0,2.2,0,3.4,0c0.6,0,1.1-0.1,1.6-0.5c0.6-0.5,0.8-1.1,0.8-1.8C52.7,13.9,52.7,13,52.7,12.1z"/>
		<path id="XMLID_49_" fill="#FFFFFF" d="M50.8,12.1c0,1.8-1.4,3.2-3.2,3.2c-1.7,0-3.2-1.4-3.2-3.2c0-1.8,1.4-3.2,3.2-3.2
			C49.4,8.9,50.8,10.3,50.8,12.1z M47.6,14.1c1.1,0,2-0.9,2.1-2c0-1.2-0.9-2.1-2.1-2.1c-1.1,0-2,0.9-2,2
			C45.6,13.2,46.5,14.1,47.6,14.1z"/>
		<path id="XMLID_48_" fill="#FFFFFF" d="M50.9,8c0.4,0,0.7,0.3,0.7,0.7c0,0.4-0.3,0.7-0.8,0.7c-0.4,0-0.7-0.4-0.7-0.8
			C50.2,8.4,50.5,8,50.9,8z"/>
	</g>
</g>
<g id="XMLID_18_">
	<g id="XMLID_32_">
		<g id="XMLID_33_">
			<g id="XMLID_34_">
				<g id="XMLID_35_">
					<path id="XMLID_36_" fill="none" stroke="#FFFFFF" stroke-miterlimit="10" d="M82.6,0.5C76.2,0.5,71,5.7,71,12.1
						c0,6.4,5.2,11.6,11.6,11.6c6.4,0,11.6-5.2,11.6-11.6C94.1,5.7,89,0.5,82.6,0.5L82.6,0.5z"/>
				</g>
			</g>
		</g>
	</g>
	<path id="XMLID_55_" fill="#FFFFFF" d="M78.2,13.4c0.1,0,0.3,0,0.4,0c0.2,0,0.4,0,0.6-0.1c-1.1-0.2-1.9-1.1-1.9-2.3v0
		c0.3,0.2,0.7,0.3,1,0.3c-0.6-0.4-1-1.1-1-1.9c0-0.4,0.1-0.8,0.3-1.2c1.1,1.4,2.9,2.3,4.8,2.4c0-0.2-0.1-0.3-0.1-0.5
		c0-1.3,1-2.3,2.3-2.3c0.7,0,1.3,0.3,1.7,0.7c0.5-0.1,1-0.3,1.5-0.6c-0.2,0.5-0.5,1-1,1.3c0.5-0.1,0.9-0.2,1.3-0.4
		c-0.3,0.5-0.7,0.9-1.2,1.2c0,0.1,0,0.2,0,0.3c0,3.1-2.3,6.6-6.6,6.6c-1.3,0-2.5-0.4-3.6-1c0.2,0,0.4,0,0.6,0c1.1,0,2.1-0.4,2.9-1
		C79.4,15,78.5,14.4,78.2,13.4z"/>
</g>
<g id="XMLID_38_">
	<g id="XMLID_42_">
		<g id="XMLID_43_">
			<g id="XMLID_44_">
				<g id="XMLID_45_">
					<path id="XMLID_46_" fill="none" stroke="#FFFFFF" stroke-miterlimit="10" d="M117.8,0.5c-6.4,0-11.6,5.2-11.6,11.6
						c0,6.4,5.2,11.6,11.6,11.6c6.4,0,11.6-5.2,11.6-11.6C129.4,5.7,124.2,0.5,117.8,0.5L117.8,0.5z"/>
				</g>
			</g>
		</g>
	</g>
	<g id="XMLID_39_">
		<g id="XMLID_40_">
			<path id="XMLID_41_" fill="#FFFFFF" d="M121.9,12l-5.8-3.3c-0.4-0.2-0.8,0-0.8,0.5v6.6c0,0.5,0.4,0.7,0.8,0.5l5.8-3.3
				C122.3,12.7,122.3,12.3,121.9,12z"/>
		</g>
	</g>
</g>
</svg>
